<svg
    xmlns="http://www.w3.org/2000/svg" x="0px" y="0px"
width="128" height="128"
viewBox="0 0 172 172"
style=" fill:#000000;">
    <g fill="none" fill-rule="nonzero" stroke="none" stroke-width="1" stroke-linecap="butt" stroke-linejoin="miter" stroke-miterlimit="10" stroke-dasharray="" stroke-dashoffset="0" font-family="none" font-weight="none" font-size="none" text-anchor="none" style="mix-blend-mode: normal">
        <path d="M0,172v-172h172v172z" fill="none" stroke="none"></path>
        <g stroke="none">
            <path d="M114.40419,155.70031v0c-2.86756,0.76863 -5.81575,-0.93256 -6.58169,-3.80012l-12.63125,-47.14144l10.3845,-2.78156l12.63125,47.14144c0.76594,2.86756 -0.93525,5.81306 -3.80281,6.58169z" fill="#c2cde7"></path>
            <path d="M113.01744,158.57325c-3.56094,0 -6.82894,-2.37844 -7.79106,-5.977l-12.63125,-47.14412c-0.18544,-0.688 -0.08869,-1.42169 0.26875,-2.03981c0.35744,-0.61544 0.94331,-1.06694 1.63131,-1.25238l10.3845,-2.78156c1.43781,-0.38969 2.90788,0.46494 3.29219,1.90006l12.63125,47.14144c1.15025,4.29462 -1.40556,8.72363 -5.70019,9.87656h-0.00269c-0.69875,0.18812 -1.39481,0.27681 -2.08281,0.27681zM114.40419,155.703h0.02687zM98.48075,106.65881l11.93519,44.548c0.38431,1.42975 1.85706,2.27363 3.29488,1.90006c1.42975,-0.387 2.28169,-1.85975 1.90006,-3.29487l-11.93519,-44.54531z" fill="#8d6c9f"></path>
            <path d="M86,150.5v0c-2.96969,0 -5.375,-2.40531 -5.375,-5.375v-37.625h10.75v37.625c0,2.96969 -2.40531,5.375 -5.375,5.375z" fill="#c2cde7"></path>
            <path d="M56.17413,155.70031v0c2.86756,0.76863 5.81575,-0.93256 6.58169,-3.80012l12.63125,-47.14144l-10.3845,-2.78156l-12.63125,47.14144c-0.76594,2.86756 0.93525,5.81306 3.80281,6.58169z" fill="#c2cde7"></path>
            <path d="M86,153.1875c-4.44513,0 -8.0625,-3.61738 -8.0625,-8.0625v-37.625c0,-1.48619 1.204,-2.6875 2.6875,-2.6875h10.75c1.4835,0 2.6875,1.20131 2.6875,2.6875v37.625c0,4.44513 -3.61737,8.0625 -8.0625,8.0625zM83.3125,110.1875v34.9375c0,1.4835 1.20669,2.6875 2.6875,2.6875c1.48081,0 2.6875,-1.204 2.6875,-2.6875v-34.9375z" fill="#8d6c9f"></path>
            <path d="M57.56088,158.57325c-0.688,0 -1.38675,-0.08869 -2.08013,-0.27681c0,0 0,0 -0.00269,0c-4.29194,-1.15294 -6.84775,-5.58194 -5.70019,-9.87656l12.63125,-47.14144c0.38431,-1.43512 1.85169,-2.28975 3.29219,-1.90006l10.3845,2.78156c0.688,0.18275 1.27656,0.63425 1.63131,1.25238c0.35475,0.61544 0.4515,1.35181 0.26875,2.03981l-12.63125,47.14413c-0.9675,3.59588 -4.2355,5.977 -7.79375,5.977zM56.8675,153.10688c1.42975,0.37356 2.91056,-0.47031 3.29487,-1.90006l11.93519,-44.548l-5.19225,-1.39213l-11.93519,44.54531c-0.38431,1.42975 0.46762,2.90787 1.89737,3.29487z" fill="#8d6c9f"></path>
            <ellipse cx="32" cy="35" transform="scale(2.6875,2.6875)" rx="10" ry="7" fill="#c2cde7"></ellipse>
            <path d="M86,115.5625c-16.29969,0 -29.5625,-9.64544 -29.5625,-21.5c0,-11.85456 13.26281,-21.5 29.5625,-21.5c16.29969,0 29.5625,9.64544 29.5625,21.5c0,11.85456 -13.26281,21.5 -29.5625,21.5zM86,77.9375c-13.33537,0 -24.1875,7.23206 -24.1875,16.125c0,8.89294 10.85213,16.125 24.1875,16.125c13.33538,0 24.1875,-7.23206 24.1875,-16.125c0,-8.89294 -10.85212,-16.125 -24.1875,-16.125z" fill="#8d6c9f"></path>
            <ellipse cx="32" cy="27.071" transform="scale(2.6875,2.6875)" rx="29" ry="9.929" fill="#a1a1e2"></ellipse>
            <path d="M86,102.125c-39.63256,0 -80.625,-10.9865 -80.625,-29.37169c0,-18.38519 40.99244,-29.37169 80.625,-29.37169c39.63256,0 80.625,10.9865 80.625,29.37169c0,18.38519 -40.99244,29.37169 -80.625,29.37169zM86,48.75931c-44.34644,0 -75.25,12.64469 -75.25,23.99669c0,11.352 30.90356,23.994 75.25,23.994c44.34644,0 75.25,-12.64469 75.25,-23.99669c0,-11.352 -30.90356,-23.994 -75.25,-23.994z" fill="#8d6c9f"></path>
            <path d="M126.3125,61.73187c0,10.965 -15.23813,17.14625 -32.465,18.57063c-6.90688,0.56437 -14.13625,0.37625 -20.80125,-0.59125c-4.54188,-0.61813 -8.815,-1.6125 -12.5775,-2.95625c-2.60687,-0.94062 -4.97188,-2.0425 -6.9875,-3.30563c-0.7525,-0.45687 -1.47812,-0.94062 -2.12312,-1.45125c-3.5475,-2.76813 -5.67063,-6.18125 -5.67063,-10.26625c0,-25.18187 18.06,-45.60687 40.3125,-45.60687c2.15,0 4.24625,0.18812 6.28875,0.56437c0.88688,0.13438 1.74688,0.3225 2.60688,0.56438c2.55313,0.645 5.02562,1.55875 7.36375,2.74125c3.5475,1.77375 6.79938,4.085 9.72875,6.88c1.935,1.85437 3.73562,3.89687 5.29437,6.1275c5.64375,7.8475 9.03,17.845 9.03,28.72937z" fill="#c5e4fa"></path>
            <path d="M92.28875,16.68937l-40.93063,55.30875c0.645,0.51063 1.37063,0.99438 2.12312,1.45125l41.41438,-56.19562c-0.86,-0.24188 -1.72,-0.43 -2.60688,-0.56438zM102.25938,19.995l-41.79062,56.76c3.7625,1.34375 8.03563,2.33813 12.5775,2.95625l38.94188,-52.83625c-2.92938,-2.795 -6.18125,-5.10625 -9.72875,-6.88zM117.2825,33.0025l-34.99125,47.3h11.55625c17.22687,-1.42438 32.465,-7.60563 32.465,-18.57063c0,-10.88437 -3.38625,-20.88187 -9.03,-28.72937z" fill="#e3f2fe"></path>
            <path d="M86,83.3125c-10.90856,0 -21.11569,-1.74956 -28.74819,-4.92888c-11.77931,-4.90738 -14.25181,-11.76319 -14.25181,-16.64906c0,-26.63044 19.29088,-48.29706 43,-48.29706c23.70913,0 43,21.66662 43,48.29706c0,14.90756 -21.59675,21.57794 -43,21.57794zM86,18.8125c-20.7475,0 -37.625,19.25325 -37.625,42.92206c0,10.52425 19.38494,16.20294 37.625,16.20294c18.24006,0 37.625,-5.67869 37.625,-16.20294c0,-23.66881 -16.8775,-42.92206 -37.625,-42.92206z" fill="#8d6c9f"></path>
            <path d="M69.76481,37.70025l-2.36769,6.97406l1.96187,6.80475l-6.82356,-1.89469l-6.95256,2.43756l2.36769,-6.97406l-1.96187,-6.80475l6.82356,1.89469zM98.82475,23.24956l-1.52381,4.97456l1.24431,4.472l-4.687,-0.99437l-4.75688,1.36794l1.51037,-4.58219l-1.23087,-4.86706l4.67625,1.38944zM91.10894,63.38469l-1.27387,3.19544l1.08844,3.10406l-3.31638,-0.85194l-3.18469,1.30613l1.08306,-3.38625l-0.88419,-3.30831l3.11481,1.05619z" fill="#fff8f8"></path>
            <path d="M21.5,112.875c-1.48081,0 -2.6875,1.19594 -2.6875,2.6875v5.375c0,1.49156 1.20669,2.6875 2.6875,2.6875c1.48081,0 2.6875,-1.19594 2.6875,-2.6875v-5.375c0,-1.49156 -1.20669,-2.6875 -2.6875,-2.6875z" fill="#8d6c9f"></path>
            <path d="M34.9375,112.875c-1.48081,0 -2.6875,1.19594 -2.6875,2.6875v5.375c0,1.49156 1.20669,2.6875 2.6875,2.6875c1.48081,0 2.6875,-1.19594 2.6875,-2.6875v-5.375c0,-1.49156 -1.20669,-2.6875 -2.6875,-2.6875z" fill="#8d6c9f"></path>
            <path d="M48.375,112.875c-1.48081,0 -2.6875,1.19594 -2.6875,2.6875v5.375c0,1.49156 1.20669,2.6875 2.6875,2.6875c1.48081,0 2.6875,-1.19594 2.6875,-2.6875v-5.375c0,-1.49156 -1.20669,-2.6875 -2.6875,-2.6875z" fill="#8d6c9f"></path>
            <path d="M150.5,112.875c-1.48081,0 -2.6875,1.19594 -2.6875,2.6875v5.375c0,1.49156 1.20669,2.6875 2.6875,2.6875c1.48081,0 2.6875,-1.19594 2.6875,-2.6875v-5.375c0,-1.49156 -1.20669,-2.6875 -2.6875,-2.6875z" fill="#8d6c9f"></path>
            <path d="M123.625,112.875c-1.48081,0 -2.6875,1.19594 -2.6875,2.6875v5.375c0,1.49156 1.20669,2.6875 2.6875,2.6875c1.48081,0 2.6875,-1.19594 2.6875,-2.6875v-5.375c0,-1.49156 -1.20669,-2.6875 -2.6875,-2.6875z" fill="#8d6c9f"></path>
            <path d="M137.0625,112.875c-1.48081,0 -2.6875,1.19594 -2.6875,2.6875v5.375c0,1.49156 1.20669,2.6875 2.6875,2.6875c1.48081,0 2.6875,-1.19594 2.6875,-2.6875v-5.375c0,-1.49156 -1.20669,-2.6875 -2.6875,-2.6875z" fill="#8d6c9f"></path>
        </g>
    </g>
</svg>